<svg width="25" height="30" viewBox="0 0 25 30" fill="none" xmlns="http://www.w3.org/2000/svg">
<path id="Vector" fill-rule="evenodd" clip-rule="evenodd" d="M16.5221 3.03009L17.7941 0.747759C17.8178 0.69098 17.8194 0.627595 17.7986 0.569734C17.7778 0.511874 17.7361 0.463603 17.6815 0.434159C17.6269 0.404716 17.5631 0.396169 17.5025 0.410153C17.4419 0.424138 17.3886 0.459673 17.3529 0.509956L16.0676 2.81549C14.9427 2.32686 13.7264 2.07594 12.4971 2.07888C11.2191 2.07888 10.0118 2.34133 8.93235 2.81259L7.64412 0.509956C7.6284 0.481277 7.6071 0.455935 7.58144 0.435381C7.55578 0.414827 7.52626 0.399464 7.49457 0.390171C7.46288 0.380879 7.42965 0.377838 7.39676 0.381224C7.36388 0.38461 7.332 0.394356 7.30294 0.409904C7.27357 0.42511 7.24758 0.44596 7.22652 0.471225C7.20545 0.496489 7.18972 0.525657 7.18026 0.557009C7.17081 0.588361 7.16781 0.621262 7.17145 0.653774C7.1751 0.686285 7.1853 0.717748 7.20147 0.746309L8.475 3.02574C5.975 4.29306 4.28382 6.70445 4.28529 9.47399L20.7059 9.47254C20.7059 6.703 19.0206 4.29741 16.5221 3.03009ZM8.76029 6.55365C8.67011 6.55355 8.58082 6.53594 8.49754 6.50182C8.41425 6.4677 8.3386 6.41774 8.27489 6.3548C8.21119 6.29185 8.16068 6.21715 8.12626 6.13495C8.09184 6.05276 8.07417 5.96469 8.07426 5.87576C8.07436 5.78683 8.09222 5.6988 8.12682 5.61668C8.16142 5.53456 8.21209 5.45996 8.27593 5.39715C8.33977 5.33433 8.41554 5.28454 8.49889 5.25059C8.58225 5.21665 8.67158 5.19923 8.76176 5.19932C8.9441 5.19932 9.11897 5.27074 9.2479 5.39787C9.37683 5.525 9.44926 5.69742 9.44926 5.87721C9.44926 6.057 9.37683 6.22942 9.2479 6.35655C9.11897 6.48368 8.9441 6.5551 8.76176 6.5551L8.76029 6.55365ZM20.65 10.0946L20.6529 21.7122C20.6529 22.4096 20.2676 23.0128 19.7 23.3463C19.4007 23.5254 19.0575 23.6207 18.7074 23.6218L17.3779 23.6233V27.5877C17.3777 27.8541 17.3173 28.1171 17.2011 28.3576C17.0848 28.5981 16.9157 28.8101 16.7061 28.9781C16.4964 29.1462 16.2513 29.266 15.9888 29.329C15.7262 29.3919 15.4528 29.3965 15.1882 29.3422C14.7782 29.2595 14.4095 29.04 14.1443 28.7207C13.8792 28.4014 13.7337 28.0018 13.7324 27.5891V23.6233H11.2691V27.5891C11.2683 28.0646 11.0761 28.5203 10.7348 28.8561C10.3934 29.1919 9.93073 29.3803 9.44853 29.3799C8.96656 29.3795 8.50438 29.1908 8.16316 28.8552C7.82195 28.5196 7.6295 28.0643 7.62794 27.5891V23.6233H6.30294C5.53676 23.6233 4.88088 23.1883 4.56471 22.5561C4.43005 22.295 4.35904 22.0065 4.35735 21.7136L4.35441 10.0989L20.65 10.0946ZM1.82353 9.76109C2.82941 9.76109 3.64706 10.563 3.64706 11.5504V19.047C3.64656 19.3713 3.55698 19.6894 3.38784 19.9675C3.21869 20.2456 2.97631 20.4734 2.68643 20.6265C2.39654 20.7797 2.06999 20.8526 1.74147 20.8375C1.41295 20.8223 1.09472 20.7197 0.820588 20.5406C0.569017 20.3782 0.362401 20.1567 0.219395 19.896C0.0763877 19.6352 0.00149259 19.3435 0.00147066 19.047L0 11.549C0 10.563 0.816176 9.76109 1.82353 9.76109ZM23.1765 9.75964C24.1824 9.75964 25 10.5601 25 11.549V19.0441C25 20.0345 24.1838 20.8349 23.1779 20.8349C22.1706 20.8349 21.3544 20.0345 21.3544 19.0441V11.5475C21.3544 10.5586 22.1691 9.75674 23.175 9.75819L23.1765 9.75964ZM16.2353 5.20078C16.3281 5.19654 16.4207 5.2109 16.5077 5.24298C16.5947 5.27506 16.6742 5.3242 16.7413 5.38743C16.8085 5.45066 16.8619 5.52667 16.8985 5.61085C16.935 5.69503 16.9538 5.78565 16.9538 5.87721C16.9538 5.96877 16.935 6.05939 16.8985 6.14357C16.8619 6.22775 16.8085 6.30376 16.7413 6.36699C16.6742 6.43022 16.5947 6.47936 16.5077 6.51144C16.4207 6.54352 16.3281 6.55788 16.2353 6.55365C16.1425 6.55788 16.0499 6.54352 15.9629 6.51144C15.8759 6.47936 15.7964 6.43022 15.7293 6.36699C15.6621 6.30376 15.6086 6.22775 15.5721 6.14357C15.5356 6.05939 15.5168 5.96877 15.5168 5.87721C15.5168 5.78565 15.5356 5.69503 15.5721 5.61085C15.6086 5.52667 15.6621 5.45066 15.7293 5.38743C15.7964 5.3242 15.8759 5.27506 15.9629 5.24298C16.0499 5.2109 16.1425 5.19654 16.2353 5.20078Z" fill="white"/>
</svg>
