<svg width="128" height="128" viewBox="0 0 128 128" fill="none" xmlns="http://www.w3.org/2000/svg">
<rect width="128" height="128" rx="10" fill="#0C0D11"/>
<path d="M92.2273 42.125C92.2273 42.125 83.9933 35.7303 74.2727 35L73.3965 36.7403C82.1835 38.876 86.2161 41.9291 90.4318 45.6875C83.1656 42.0074 75.9964 38.5625 63.5 38.5625C51.0036 38.5625 43.8344 42.0074 36.5682 45.6875C40.7839 41.9291 45.5814 38.534 53.6035 36.7403L52.7273 35C42.5291 35.953 34.7727 42.125 34.7727 42.125C34.7727 42.125 25.5782 55.3526 24 81.3125C33.2645 91.9163 47.3409 92 47.3409 92L50.2855 88.1098C45.2869 86.3855 39.6492 83.3093 34.7727 77.75C40.5864 82.1141 49.3608 86.6562 63.5 86.6562C77.6392 86.6562 86.4136 82.1141 92.2273 77.75C87.3526 83.3093 81.7149 86.3855 76.7145 88.1098L79.6591 92C79.6591 92 93.7355 91.9163 103 81.3125C101.422 55.3526 92.2273 42.125 92.2273 42.125ZM51.8295 74.1875C48.3571 74.1875 45.5455 70.9991 45.5455 67.0625C45.5455 63.1259 48.3571 59.9375 51.8295 59.9375C55.302 59.9375 58.1136 63.1259 58.1136 67.0625C58.1136 70.9991 55.302 74.1875 51.8295 74.1875ZM75.1705 74.1875C71.698 74.1875 68.8864 70.9991 68.8864 67.0625C68.8864 63.1259 71.698 59.9375 75.1705 59.9375C78.6429 59.9375 81.4545 63.1259 81.4545 67.0625C81.4545 70.9991 78.6429 74.1875 75.1705 74.1875Z" fill="white"/>
</svg>
