<svg width="128" height="128" viewBox="0 0 128 128" fill="none" xmlns="http://www.w3.org/2000/svg">
<rect width="128" height="128" rx="10" fill="#0C0D11"/>
<path d="M87.1545 43.3982C86.664 43.1471 86.1864 42.8717 85.7236 42.5733C84.3778 41.692 83.1439 40.6536 82.0484 39.4804C79.3076 36.3741 78.2839 33.2227 77.9069 31.0163H77.922C77.6071 29.1849 77.7373 28 77.757 28H65.2733V75.8146C65.2733 76.4566 65.2733 77.091 65.246 77.718C65.246 77.796 65.2385 77.868 65.2339 77.952C65.2339 77.9865 65.2339 78.0225 65.2264 78.0585C65.2264 78.0675 65.2264 78.0765 65.2264 78.0855C65.0948 79.8011 64.5396 81.4583 63.6096 82.9115C62.6796 84.3647 61.4033 85.5692 59.8931 86.4191C58.3191 87.3061 56.5388 87.7713 54.7279 87.769C48.9116 87.769 44.1976 83.0713 44.1976 77.2695C44.1976 71.4678 48.9116 66.7701 54.7279 66.7701C55.8289 66.7691 56.9231 66.9407 57.97 67.2785L57.9851 54.6882C54.8072 54.2816 51.5787 54.5317 48.5033 55.4229C45.4279 56.3141 42.5723 57.8269 40.1167 59.8659C37.965 61.7177 36.1561 63.9273 34.7713 66.3951C34.2443 67.295 32.2561 70.9114 32.0153 76.7806C31.8639 80.1119 32.8739 83.5632 33.3554 84.9897V85.0197C33.6583 85.8596 34.8319 88.726 36.7444 91.1423C38.2866 93.0806 40.1086 94.7833 42.1519 96.1956V96.1656L42.1821 96.1956C48.2256 100.263 54.9263 99.9964 54.9263 99.9964C56.0862 99.9499 59.9718 99.9964 64.3844 97.925C69.2786 95.6286 72.0648 92.2073 72.0648 92.2073C73.8448 90.163 75.2602 87.8333 76.2503 85.3181C77.3799 82.3768 77.757 78.849 77.757 77.439V52.0723C77.9084 52.1623 79.9254 53.4837 79.9254 53.4837C79.9254 53.4837 82.8313 55.3286 87.365 56.5301C90.6177 57.385 95 57.565 95 57.565V45.2896C93.4645 45.4546 90.3466 44.9747 87.1545 43.3982Z" fill="white"/>
</svg>
