<svg width="28" height="32" viewBox="0 0 28 32" fill="none" xmlns="http://www.w3.org/2000/svg">
<path id="Vector" d="M28 17.4399V29.0395C28 29.3538 27.9369 29.6649 27.8144 29.9542C27.6919 30.2435 27.5126 30.5051 27.2871 30.7234C27.0617 30.9417 26.7947 31.1122 26.5021 31.2247C26.2096 31.3372 25.8974 31.3895 25.5842 31.3784L25.3773 31.3613L14 29.9351V17.4399H28ZM10.8889 17.4399V29.545L2.72533 28.5214C1.97276 28.4271 1.28047 28.0603 0.778591 27.4899C0.276716 26.9195 -0.000165095 26.1849 7.38536e-08 25.4242V17.4399H10.8889ZM25.3773 0.397936C25.6882 0.358975 26.0038 0.383226 26.3052 0.469242C26.6065 0.555259 26.8876 0.70128 27.1314 0.898594C27.3753 1.09591 27.5771 1.34047 27.7247 1.6177C27.8724 1.89493 27.9628 2.19914 27.9907 2.51219L28 2.71972V14.3193H14V1.82408L25.3773 0.397936ZM10.8889 2.21417V14.3193H7.38536e-08V6.33502C-0.000165095 5.57426 0.276716 4.83965 0.778591 4.26928C1.28047 3.69891 1.97276 3.33208 2.72533 3.23775L10.8889 2.21417Z" fill="white"/>
</svg>
